<svg xmlns="http://www.w3.org/2000/svg" viewBox="0 0 512 512">
  <defs>
    <linearGradient id="g" x1="0" y1="0" x2="1" y2="1">
      <stop offset="0%" stop-color="#f97316"/>
      <stop offset="100%" stop-color="#ea580c"/>
    </linearGradient>
  </defs>
  <rect width="512" height="512" rx="104" fill="url(#g)"/>
  <path d="M255.3 98.7c-7.2 46.9 39.2 66.2 39.2 108.3 0 27.8-19.8 41.3-45.9 47.5 13.9-29.4-17.9-46.4-17.9-77.6 0-30.7 23.4-57.6 24.6-78.2z" fill="#fff"/>
  <path d="M222.4 249.2c-45.4 29.8-55.3 83.5-25.3 123.8 34.7 46.3 108.9 53.8 153.1 4.8 28.7-31.8 29.3-80.8 6.1-110.5-8 36.5-37.4 57-72.8 61-29.3 3.5-54-7.1-61.1-79.1z" fill="#fff" opacity=".95"/>
</svg>
