<svg xmlns="http://www.w3.org/2000/svg" viewBox="0 0 192 192">
  <defs>
    <linearGradient id="g" x1="0" y1="0" x2="1" y2="1">
      <stop offset="0%" stop-color="#f97316"/>
      <stop offset="100%" stop-color="#ea580c"/>
    </linearGradient>
  </defs>
  <rect width="192" height="192" rx="40" fill="url(#g)"/>
  <path d="M95.7 37c-2.7 17.6 14.7 24.8 14.7 40.6 0 10.4-7.4 15.5-17.2 17.8 5.2-11-6.7-17.4-6.7-29.1 0-11.5 8.8-21.6 9.2-29.3z" fill="#fff"/>
  <path d="M83.4 92.8c-17 11.2-20.7 31.3-9.5 46.4 13 17.4 40.8 20.2 57.4 1.8 10.8-11.9 11-30.3 2.3-41.4-3 13.7-14 21.4-27.2 22.9-11 1.3-20.2-2.7-23-29.7z" fill="#fff" opacity=".95"/>
</svg>
